<svg width="34" height="27" viewBox="0 0 34 27" fill="none" xmlns="http://www.w3.org/2000/svg">
<mask id="path-1-inside-1_330_30" fill="white">
<path d="M22.3711 0C28.6948 0 33.8211 5.1949 33.8213 11.5186C33.8213 15.1122 32.1642 18.3396 29.5742 20.458L23.2803 26.752L19.5664 23.0381H11.4502C5.12642 23.038 0 17.8423 0 11.5186C0.000190699 5.19493 5.12654 4.78218e-05 11.4502 0H22.3711Z"/>
</mask>
<path d="M33.8213 11.5186H36.1213V11.5185L33.8213 11.5186ZM29.5742 20.458L28.118 18.6777L28.0291 18.7504L27.9479 18.8317L29.5742 20.458ZM23.2803 26.752L21.6539 28.3783L23.2803 30.0046L24.9066 28.3783L23.2803 26.752ZM19.5664 23.0381L21.1928 21.4117L20.5191 20.7381H19.5664V23.0381ZM11.4502 23.0381L11.4502 25.3381H11.4502V23.0381ZM0 11.5186L-2.3 11.5185V11.5186H0ZM11.4502 0V-2.3H11.4502L11.4502 0ZM22.3711 0V2.3C27.4067 2.3 31.5211 6.44725 31.5213 11.5186L33.8213 11.5186L36.1213 11.5185C36.1211 3.94254 29.9829 -2.3 22.3711 -2.3V0ZM33.8213 11.5186H31.5213C31.5213 14.3914 30.1983 16.9762 28.118 18.6777L29.5742 20.458L31.0304 22.2383C34.1301 19.703 36.1213 15.833 36.1213 11.5186H33.8213ZM29.5742 20.458L27.9479 18.8317L21.6539 25.1256L23.2803 26.752L24.9066 28.3783L31.2006 22.0844L29.5742 20.458ZM23.2803 26.752L24.9066 25.1256L21.1928 21.4117L19.5664 23.0381L17.9401 24.6644L21.6539 28.3783L23.2803 26.752ZM19.5664 23.0381V20.7381H11.4502V23.0381V25.3381H19.5664V23.0381ZM11.4502 23.0381L11.4502 20.7381C6.41469 20.738 2.3 16.5902 2.3 11.5186H0H-2.3C-2.3 19.0945 3.83815 25.338 11.4502 25.3381L11.4502 23.0381ZM0 11.5186L2.3 11.5186C2.30015 6.4473 6.41462 2.30004 11.4502 2.3L11.4502 0L11.4502 -2.3C3.83845 -2.29994 -2.29977 3.94256 -2.3 11.5185L0 11.5186ZM11.4502 0V2.3H22.3711V0V-2.3H11.4502V0Z" fill="#24C192" mask="url(#path-1-inside-1_330_30)"/>
<rect x="7.91709" y="5.78721" width="17.3074" height="7.21465" rx="3.60732" stroke="#24C192" stroke-width="2.3"/>
<rect x="12.3179" y="7.93463" width="1.48562" height="2.91935" rx="0.742811" fill="#D9D9D9" stroke="#24C192" stroke-width="0.0421186"/>
<rect x="20.0179" y="7.93463" width="1.48562" height="2.91935" rx="0.742811" fill="#D9D9D9" stroke="#24C192" stroke-width="0.0421186"/>
<path d="M14.1086 16.1377C14.8174 17.5985 16.8301 18.6067 19.3168 17.5332" stroke="#24C192" stroke-width="2" stroke-linecap="round"/>
<rect x="12.2969" y="7.91357" width="1.73318" height="2.96143" rx="0.866591" fill="black"/>
<rect x="19.7913" y="7.91357" width="1.73318" height="2.96143" rx="0.866591" fill="black"/>
</svg>
