<svg width="1174" height="1399" viewBox="0 0 1174 1399" fill="none" xmlns="http://www.w3.org/2000/svg">
<path d="M679.267 1020.99L591.545 980.398C589.989 979.69 588.258 979.32 586.5 979.32C584.742 979.32 583.011 979.69 581.455 980.398L493.733 1020.99C492.097 1021.71 490.28 1022.05 488.449 1021.99C486.619 1021.94 484.835 1021.48 483.265 1020.66C481.694 1019.84 480.388 1018.7 479.467 1017.33C478.547 1015.95 478.042 1014.4 478 1012.82V754.397C478 751.905 479.143 749.515 481.178 747.752C483.213 745.99 485.972 745 488.85 745H684.15C687.028 745 689.787 745.99 691.822 747.752C693.857 749.515 695 751.905 695 754.397V1012.82C694.958 1014.4 694.453 1015.95 693.533 1017.33C692.612 1018.7 691.306 1019.84 689.735 1020.66C688.165 1021.48 686.381 1021.94 684.551 1021.99C682.72 1022.05 680.903 1021.71 679.267 1020.99Z" fill="#E1295A"/>
<path d="M552.003 1.21741C529.603 2.95074 511.47 4.95072 504.67 6.28406C501.07 7.08406 492.67 8.55073 486.003 9.75073C465.07 13.4841 453.603 16.1506 424.67 23.6173C412.936 26.684 386.936 35.8841 371.336 42.2841C369.87 42.9507 363.87 45.3507 358.003 47.7507C326.536 60.6841 271.203 90.9507 244.003 110.417C198.936 142.551 145.07 195.351 114.936 237.084C110.403 243.351 104.136 252.017 100.936 256.417C97.7364 260.817 92.803 268.151 89.8697 272.817C87.0697 277.484 83.603 282.817 82.403 284.817C79.603 289.217 78.2697 291.751 70.003 307.084C56.5364 332.151 51.7364 342.151 40.9364 367.751C38.803 372.684 28.6697 401.484 26.6697 408.417C26.003 410.551 24.5364 415.351 23.4697 419.084C18.9364 434.017 12.5364 460.417 10.6697 472.017C10.003 475.884 8.66969 484.417 7.60302 491.084C4.80302 508.151 2.93636 522.284 1.33636 539.084C0.536358 548.684 0.00302457 652.151 0.00302457 838.417C0.00302457 1150.82 -0.396976 1133.08 8.00303 1152.95C20.2697 1181.88 38.803 1198.68 70.003 1209.35C77.603 1212.02 82.2697 1212.28 150.67 1213.22C221.07 1214.28 242.536 1215.22 259.336 1218.42C287.203 1223.48 323.47 1233.22 342.27 1240.42C355.07 1245.35 388.136 1261.22 400.003 1268.02C402.536 1269.48 407.07 1272.02 410.003 1273.48C418.27 1278.02 444.67 1296.15 450.67 1301.48C451.736 1302.42 455.336 1305.22 458.67 1307.75C476.67 1321.48 501.203 1344.55 518.003 1364.02C523.736 1370.68 536.27 1381.62 540.936 1384.15C560.003 1394.68 575.336 1399.08 591.336 1398.95C604.803 1398.95 622.936 1393.88 636.936 1386.28C649.87 1379.35 648.67 1380.42 683.47 1343.88C706.67 1319.62 742.67 1290.82 769.87 1274.68C797.203 1258.42 834.403 1241.75 859.736 1234.42C864.67 1232.95 871.736 1230.82 875.336 1229.75C896.936 1223.35 934.936 1216.68 959.336 1215.08C966.003 1214.55 999.203 1213.75 1033.34 1213.22C1092.14 1212.15 1095.74 1212.02 1103.34 1209.22C1120 1203.22 1133.47 1195.48 1141.87 1187.22C1155.2 1174.15 1159.2 1168.02 1167.2 1148.55C1173.47 1133.35 1173.34 1140.95 1173.34 867.884C1173.34 682.151 1172.94 608.951 1171.87 603.217C1167.47 579.617 1158 561.351 1142.14 545.751C1132.54 536.284 1128.8 533.617 1117.34 528.151C1106.8 523.217 1101.2 521.351 1091.07 519.751C1082.8 518.284 478.47 517.751 476.203 519.084C475.536 519.617 476.003 555.484 476.003 609.617V699.484L479.07 700.284C480.67 700.684 594.803 701.084 732.536 701.084C915.87 701.084 983.603 701.484 984.803 702.551C986.403 703.884 986.67 731.484 986.67 865.884C986.67 1011.08 986.403 1027.75 984.536 1029.62C982.803 1031.35 978.936 1031.75 962.936 1031.75C952.136 1031.75 938.803 1032.42 933.336 1033.08C927.87 1033.88 918.003 1035.08 911.336 1035.75C904.803 1036.55 896.003 1037.75 892.003 1038.55C888.003 1039.22 879.87 1040.82 874.003 1041.88C868.136 1042.95 859.47 1044.68 854.67 1045.75C849.87 1046.68 843.87 1048.02 841.336 1048.42C838.803 1048.82 835.203 1049.75 833.336 1050.28C831.47 1050.95 826.136 1052.55 821.336 1053.75C799.87 1059.48 768.003 1070.95 748.67 1079.75C745.736 1081.08 739.736 1083.62 735.336 1085.48C718.936 1092.42 695.603 1105.22 672.67 1119.75C670.936 1120.82 666.67 1123.48 663.07 1125.62C659.603 1127.75 652.536 1132.55 647.336 1136.42C642.27 1140.15 634.67 1145.62 630.67 1148.42C626.67 1151.22 623.07 1153.88 622.67 1154.28C622.27 1154.82 618.67 1157.75 614.67 1160.95C610.67 1164.02 604.136 1169.62 600.27 1173.22C596.403 1176.82 592.136 1179.75 590.936 1179.75C589.603 1179.75 584.27 1176.02 579.07 1171.35C559.07 1153.75 542.936 1141.22 523.336 1128.55C516.803 1124.28 509.736 1119.62 507.736 1118.28C484.536 1102.28 444.136 1081.88 411.336 1069.48C408.403 1068.42 404.27 1066.82 402.003 1065.88C399.87 1064.95 391.736 1062.28 384.003 1059.88C376.27 1057.35 368.003 1054.55 365.603 1053.62C363.203 1052.55 360.27 1051.75 359.203 1051.75C358.136 1051.75 354.403 1050.95 350.936 1049.88C341.47 1047.08 311.336 1040.95 292.003 1037.88C263.87 1033.35 243.87 1031.75 217.736 1031.75C195.07 1031.75 190.536 1031.48 188.803 1029.62C186.936 1027.75 186.67 1005.75 186.67 806.684C186.67 574.151 186.936 564.551 192.803 531.084C197.603 503.484 204.403 476.017 208.936 465.484C209.87 463.217 210.67 460.551 210.67 459.484C210.67 458.417 211.203 457.084 211.736 456.417C212.27 455.617 214.136 451.484 215.87 447.084C221.87 431.617 226.003 422.817 236.936 403.084C239.336 398.684 241.87 393.884 242.67 392.417C246.136 386.017 261.336 362.817 265.47 357.751C288.536 329.617 300.003 317.484 319.736 300.151C328.936 292.017 356.536 270.951 363.336 266.817C364.803 266.017 371.47 262.017 378.003 257.884C396.936 246.417 402.536 243.351 425.203 232.817C436.003 227.751 482.536 211.751 486.536 211.751C487.603 211.751 491.47 210.951 495.203 209.884C505.336 207.084 520.27 204.017 536.67 201.484C557.07 198.417 616.803 198.417 639.336 201.484C673.603 206.284 715.736 216.817 739.336 226.417C774.136 240.817 807.203 259.351 832.67 278.684C864.536 303.084 879.87 317.617 905.87 348.151C909.336 352.284 912.803 355.751 913.336 355.751C914.27 355.751 933.47 341.617 940.27 336.017C945.603 331.484 969.47 312.684 982.003 303.217C988.67 298.151 994.27 293.617 994.67 293.217C995.07 292.684 999.07 289.484 1003.6 286.017C1008.14 282.551 1012.67 278.951 1013.6 278.017C1014.54 277.084 1022.8 270.684 1032 263.751C1041.2 256.951 1050.8 249.484 1053.34 247.217C1055.87 244.951 1059.74 241.751 1061.87 240.284L1065.87 237.351L1063.34 233.617C1052.8 217.351 1006.54 167.884 985.07 149.751C961.07 129.617 931.736 107.617 916.536 98.4174C911.47 95.3507 904.27 90.8174 900.403 88.2841C896.67 85.7507 893.07 83.7507 892.536 83.7507C892.003 83.7507 890.536 82.9507 889.47 81.884C886.936 79.6174 866.136 68.2841 851.336 61.2174C830.803 51.3507 822.403 47.7506 801.336 39.6173C795.07 37.2173 788.136 34.5507 785.736 33.484C783.47 32.5507 780.403 31.7507 779.07 31.7507C777.736 31.7507 776.003 31.2173 775.336 30.5507C774.536 29.7507 771.603 28.684 768.67 27.884C765.736 27.084 760.403 25.6173 756.67 24.5507C739.47 19.3507 715.336 13.3507 705.07 11.7507C701.203 11.2174 694.403 10.0174 690.003 9.21741C665.47 4.55074 663.47 4.28398 623.336 1.08398C605.07 -0.382682 570.67 -0.382593 552.003 1.21741Z" fill="#202E51"/>
</svg>
