<svg width="1151" height="1372" viewBox="0 0 1151 1372" fill="none" xmlns="http://www.w3.org/2000/svg">
<path d="M658.125 1006.6L577.197 968.514C575.761 967.849 574.164 967.502 572.542 967.502C570.921 967.502 569.323 967.849 567.888 968.514L486.959 1006.6C485.451 1007.27 483.774 1007.59 482.085 1007.54C480.397 1007.48 478.751 1007.05 477.302 1006.29C475.854 1005.52 474.648 1004.45 473.799 1003.16C472.95 1001.87 472.484 1000.42 472.445 998.931V756.477C472.445 754.138 473.5 751.896 475.377 750.242C477.254 748.589 479.8 747.66 482.455 747.66H662.63C665.284 747.66 667.83 748.589 669.708 750.242C671.585 751.896 672.639 754.138 672.639 756.477V998.931C672.601 1000.42 672.135 1001.87 671.286 1003.16C670.436 1004.45 669.231 1005.52 667.782 1006.29C666.333 1007.05 664.688 1007.48 662.999 1007.54C661.311 1007.59 659.634 1007.27 658.125 1006.6Z" fill="#6FEF8B"/>
<path d="M541.068 1.19417C519.112 2.89316 501.338 4.85353 494.673 6.16045C491.144 6.9446 482.91 8.38222 476.376 9.55845C455.857 13.2178 444.618 15.8316 416.257 23.1503C404.756 26.1563 379.271 35.1741 363.981 41.4473C362.543 42.1008 356.662 44.4532 350.911 46.8057C320.068 59.4828 265.831 89.1499 239.17 108.231C194.996 139.728 142.196 191.482 112.66 232.388C108.216 238.531 102.074 247.026 98.9369 251.339C95.8003 255.652 90.9647 262.84 88.0894 267.414C85.3449 271.988 81.9469 277.216 80.7707 279.176C78.0262 283.489 76.7192 285.972 68.6163 301.002C55.4164 325.572 50.7115 335.374 40.1254 360.467C38.0344 365.302 28.1018 393.532 26.1414 400.328C25.4879 402.419 24.0503 407.124 23.0048 410.783C18.5612 425.421 12.288 451.298 10.4583 462.668C9.80487 466.458 8.49795 474.822 7.45241 481.357C4.70788 498.085 2.87819 511.939 1.30989 528.406C0.525733 537.816 0.00296466 639.233 0.00296466 821.81C0.00296466 1128.02 -0.389112 1110.64 7.84449 1130.11C19.8682 1158.47 38.0344 1174.94 68.6163 1185.4C76.0658 1188.01 80.64 1188.27 147.685 1189.19C216.69 1190.23 237.732 1191.15 254.199 1194.28C281.514 1199.25 317.062 1208.79 335.49 1215.85C348.036 1220.68 380.448 1236.23 392.079 1242.9C394.562 1244.34 399.006 1246.82 401.881 1248.26C409.984 1252.7 435.861 1270.48 441.742 1275.7C442.788 1276.62 446.317 1279.36 449.584 1281.85C467.227 1295.31 491.275 1317.92 507.742 1337C513.362 1343.53 525.647 1354.25 530.221 1356.73C548.91 1367.06 563.939 1371.37 579.622 1371.24C592.822 1371.24 610.596 1366.27 624.319 1358.82C636.996 1352.03 635.82 1353.07 669.931 1317.26C692.671 1293.48 727.958 1265.25 754.619 1249.43C781.411 1233.49 817.874 1217.15 842.706 1209.97C847.541 1208.53 854.468 1206.44 857.997 1205.39C879.169 1199.12 916.416 1192.58 940.333 1191.01C946.867 1190.49 979.41 1189.71 1012.87 1189.19C1070.5 1188.14 1074.03 1188.01 1081.48 1185.26C1097.82 1179.38 1111.02 1171.8 1119.25 1163.7C1132.32 1150.89 1136.24 1144.88 1144.08 1125.8C1150.22 1110.9 1150.09 1118.35 1150.09 850.693C1150.09 668.639 1149.7 596.889 1148.66 591.269C1144.34 568.136 1135.06 550.232 1119.51 534.941C1110.1 525.662 1106.44 523.048 1095.2 517.689C1084.88 512.854 1079.39 511.024 1069.46 509.456C1061.35 508.018 468.992 507.495 466.77 508.802C466.116 509.325 466.574 544.481 466.574 597.542V685.629L469.58 686.413C471.148 686.805 583.02 687.197 718.025 687.197C897.727 687.197 964.119 687.589 965.295 688.635C966.863 689.941 967.125 716.995 967.125 848.732C967.125 991.056 966.863 1007.39 965.033 1009.22C963.334 1010.92 959.544 1011.31 943.861 1011.31C933.275 1011.31 920.206 1011.97 914.848 1012.62C909.489 1013.4 899.818 1014.58 893.283 1015.23C886.88 1016.02 878.254 1017.19 874.333 1017.98C870.412 1018.63 862.44 1020.2 856.69 1021.25C850.939 1022.29 842.444 1023.99 837.739 1025.04C833.034 1025.95 827.153 1027.26 824.67 1027.65C822.187 1028.04 818.658 1028.96 816.829 1029.48C814.999 1030.13 809.771 1031.7 805.066 1032.88C784.025 1038.5 752.789 1049.74 733.839 1058.36C730.964 1059.67 725.083 1062.15 720.77 1063.98C704.695 1070.78 681.824 1083.32 659.345 1097.57C657.646 1098.62 653.463 1101.23 649.935 1103.32C646.537 1105.41 639.61 1110.12 634.513 1113.91C629.547 1117.57 622.097 1122.92 618.177 1125.67C614.256 1128.41 610.727 1131.03 610.335 1131.42C609.943 1131.94 606.414 1134.82 602.494 1137.95C598.573 1140.96 592.169 1146.45 588.379 1149.98C584.589 1153.51 580.407 1156.38 579.23 1156.38C577.923 1156.38 572.696 1152.72 567.599 1148.15C547.995 1130.9 532.181 1118.61 512.969 1106.2C506.566 1102.01 499.639 1097.44 497.679 1096.13C474.938 1080.45 435.338 1060.45 403.188 1048.3C400.313 1047.25 396.261 1045.69 394.04 1044.77C391.949 1043.86 383.976 1041.24 376.396 1038.89C368.816 1036.41 360.713 1033.66 358.361 1032.75C356.008 1031.7 353.133 1030.92 352.087 1030.92C351.042 1030.92 347.383 1030.13 343.985 1029.09C334.705 1026.34 305.169 1020.33 286.219 1017.33C258.643 1012.88 239.039 1011.31 213.423 1011.31C191.206 1011.31 186.762 1011.05 185.063 1009.22C183.233 1007.39 182.972 985.828 182.972 790.705C182.972 562.778 183.233 553.368 188.984 520.565C193.689 493.511 200.354 466.589 204.797 456.264C205.712 454.042 206.497 451.428 206.497 450.383C206.497 449.337 207.019 448.03 207.542 447.377C208.065 446.593 209.894 442.541 211.593 438.228C217.475 423.068 221.526 414.443 232.243 395.1C234.595 390.787 237.078 386.082 237.863 384.645C241.261 378.372 256.159 355.631 260.211 350.665C282.821 323.089 294.06 311.196 313.403 294.206C322.42 286.234 349.474 265.584 356.139 261.533C357.577 260.749 364.111 256.828 370.515 252.776C389.073 241.537 394.562 238.531 416.78 228.206C427.366 223.24 472.978 207.557 476.898 207.557C477.944 207.557 481.734 206.773 485.393 205.727C495.326 202.983 509.964 199.977 526.039 197.494C546.035 194.488 604.585 194.488 626.672 197.494C660.259 202.199 701.558 212.523 724.691 221.933C758.801 236.048 791.213 254.214 816.175 273.164C847.411 297.081 862.44 311.327 887.925 341.255C891.323 345.306 894.721 348.704 895.244 348.704C896.159 348.704 914.978 334.851 921.644 329.362C926.871 324.919 950.265 306.491 962.55 297.212C969.085 292.245 974.574 287.802 974.966 287.41C975.358 286.887 979.279 283.75 983.722 280.352C988.166 276.954 992.609 273.426 993.524 272.511C994.439 271.596 1002.54 265.323 1011.56 258.527C1020.58 251.862 1029.99 244.543 1032.47 242.321C1034.95 240.099 1038.74 236.963 1040.83 235.525L1044.76 232.65L1042.27 228.99C1031.95 213.046 986.598 164.559 965.556 146.785C942.032 127.051 913.279 105.486 898.38 96.4687C893.414 93.4627 886.357 89.0192 882.567 86.5361C878.907 84.0529 875.379 82.0926 874.856 82.0926C874.333 82.0926 872.896 81.3084 871.85 80.2628C869.367 78.0411 848.979 66.9323 834.472 60.0056C814.345 50.3344 806.112 46.8056 785.462 38.8334C779.32 36.4809 772.524 33.8671 770.172 32.8216C767.95 31.9067 764.944 31.1226 763.637 31.1226C762.33 31.1226 760.631 30.5998 759.978 29.9463C759.193 29.1622 756.318 28.1167 753.443 27.3325C750.568 26.5484 745.34 25.1107 741.681 24.0652C724.821 18.9682 701.166 13.0871 691.103 11.5188C687.313 10.9961 680.647 9.81984 676.335 9.03569C652.287 4.46147 650.327 4.2 610.989 1.06339C593.084 -0.374228 559.365 -0.37414 541.068 1.19417Z" fill="white"/>
</svg>
