<svg width="1399" height="1602" viewBox="0 0 1399 1602" fill="none" xmlns="http://www.w3.org/2000/svg">
<mask id="path-1-outside-1_291_99" maskUnits="userSpaceOnUse" x="-1" y="0" width="1400" height="1602" fill="black">
<rect fill="white" x="-1" width="1400" height="1602"/>
<path d="M775.629 1096.83L701.034 1061.73C699.71 1061.12 698.238 1060.8 696.743 1060.8C695.249 1060.8 693.776 1061.12 692.453 1061.73L617.857 1096.83C616.467 1097.45 614.921 1097.75 613.365 1097.7C611.808 1097.65 610.292 1097.25 608.956 1096.55C607.62 1095.84 606.51 1094.85 605.727 1093.66C604.944 1092.48 604.515 1091.14 604.479 1089.76V866.283C604.479 864.128 605.451 862.061 607.181 860.536C608.912 859.012 611.258 858.156 613.705 858.156H779.781C782.228 858.156 784.575 859.012 786.305 860.536C788.035 862.061 789.008 864.128 789.008 866.283V1089.76C788.972 1091.14 788.543 1092.48 787.76 1093.66C786.977 1094.85 785.866 1095.84 784.53 1096.55C783.195 1097.25 781.678 1097.65 780.122 1097.7C778.565 1097.75 777.02 1097.45 775.629 1096.83Z"/>
<path d="M667.729 170.1C647.491 171.666 631.107 173.473 624.964 174.677C621.711 175.4 614.122 176.725 608.099 177.81C589.185 181.183 578.825 183.592 552.685 190.338C542.084 193.109 518.593 201.421 504.498 207.203C503.173 207.805 497.752 209.974 492.452 212.142C464.022 223.827 414.029 251.173 389.454 268.761C348.737 297.793 300.069 345.497 272.844 383.203C268.748 388.865 263.086 396.695 260.195 400.67C257.304 404.646 252.847 411.271 250.196 415.487C247.667 419.704 244.534 424.522 243.45 426.329C240.92 430.305 239.716 432.594 232.247 446.447C220.08 469.094 215.743 478.129 205.986 501.259C204.058 505.716 194.903 531.736 193.096 538.001C192.493 539.928 191.168 544.265 190.205 547.638C186.109 561.13 180.326 584.982 178.64 595.462C178.038 598.956 176.833 606.666 175.869 612.689C173.339 628.109 171.653 640.878 170.207 656.056C169.485 664.73 169.003 758.211 169.003 926.501C169.003 1208.75 168.641 1192.73 176.231 1210.68C187.313 1236.82 204.058 1252 232.247 1261.64C239.114 1264.04 243.33 1264.29 305.128 1265.13C368.734 1266.09 388.129 1266.94 403.308 1269.83C428.485 1274.4 461.251 1283.2 478.237 1289.7C489.802 1294.16 519.677 1308.5 530.398 1314.64C532.687 1315.96 536.783 1318.25 539.433 1319.58C546.902 1323.67 570.754 1340.06 576.175 1344.88C577.139 1345.72 580.392 1348.25 583.403 1350.54C599.666 1362.95 621.832 1383.79 637.01 1401.37C642.19 1407.4 653.514 1417.28 657.73 1419.57C674.957 1429.08 688.81 1433.06 703.266 1432.94C715.433 1432.94 731.816 1428.36 744.465 1421.49C756.15 1415.23 755.066 1416.19 786.508 1383.18C807.469 1361.26 839.994 1335.24 864.569 1320.66C889.264 1305.97 922.874 1290.91 945.763 1284.28C950.22 1282.96 956.604 1281.03 959.857 1280.07C979.372 1274.28 1013.7 1268.26 1035.75 1266.82C1041.77 1266.33 1071.77 1265.61 1102.61 1265.13C1155.73 1264.16 1158.99 1264.04 1165.85 1261.51C1180.91 1256.09 1193.08 1249.11 1200.67 1241.64C1212.71 1229.83 1216.33 1224.29 1223.56 1206.7C1229.22 1192.97 1229.1 1199.84 1229.1 953.124C1229.1 785.316 1228.74 719.18 1227.77 714C1223.8 692.678 1215.24 676.174 1200.91 662.08C1192.23 653.527 1188.86 651.117 1178.5 646.178C1168.98 641.721 1163.93 640.035 1154.77 638.589C1147.3 637.264 601.292 636.782 599.244 637.987C598.642 638.469 599.064 670.874 599.064 719.783V800.976L601.834 801.699C603.28 802.06 706.398 802.422 830.839 802.422C996.478 802.422 1057.67 802.783 1058.76 803.747C1060.2 804.951 1060.45 829.888 1060.45 951.317C1060.45 1082.5 1060.2 1097.56 1058.52 1099.25C1056.95 1100.81 1053.46 1101.18 1039 1101.18C1029.24 1101.18 1017.2 1101.78 1012.26 1102.38C1007.32 1103.1 998.406 1104.19 992.383 1104.79C986.48 1105.51 978.529 1106.6 974.915 1107.32C971.301 1107.92 963.953 1109.37 958.652 1110.33C953.352 1111.29 945.522 1112.86 941.185 1113.82C936.848 1114.67 931.427 1115.87 929.138 1116.23C926.85 1116.59 923.597 1117.44 921.91 1117.92C920.224 1118.52 915.405 1119.97 911.069 1121.05C891.674 1126.23 862.882 1136.59 845.415 1144.54C842.765 1145.75 837.344 1148.04 833.368 1149.72C818.551 1155.99 797.47 1167.55 776.75 1180.68C775.184 1181.65 771.329 1184.06 768.076 1185.98C764.944 1187.91 758.56 1192.25 753.861 1195.74C749.284 1199.11 742.417 1204.05 738.803 1206.58C735.189 1209.11 731.937 1211.52 731.575 1211.88C731.214 1212.36 727.961 1215.02 724.347 1217.91C720.733 1220.68 714.831 1225.74 711.337 1228.99C707.844 1232.24 703.989 1234.89 702.905 1234.89C701.7 1234.89 696.881 1231.52 692.183 1227.3C674.113 1211.4 659.537 1200.08 641.829 1188.63C635.926 1184.78 629.541 1180.56 627.734 1179.36C606.773 1164.9 570.272 1146.47 540.638 1135.27C537.988 1134.3 534.253 1132.86 532.205 1132.01C530.278 1131.17 522.93 1128.76 515.943 1126.59C508.956 1124.3 501.487 1121.78 499.318 1120.93C497.15 1119.97 494.5 1119.25 493.536 1119.25C492.572 1119.25 489.199 1118.52 486.067 1117.56C477.514 1115.03 450.289 1109.49 432.822 1106.72C407.403 1102.62 389.334 1101.18 365.722 1101.18C345.243 1101.18 341.148 1100.93 339.582 1099.25C337.895 1097.56 337.654 1077.68 337.654 897.83C337.654 687.739 337.895 679.065 343.195 648.829C347.532 623.892 353.676 599.076 357.772 589.56C358.615 587.512 359.338 585.102 359.338 584.139C359.338 583.175 359.82 581.97 360.302 581.368C360.783 580.645 362.47 576.911 364.036 572.935C369.457 558.961 373.191 551.011 383.069 533.182C385.238 529.207 387.527 524.87 388.249 523.545C391.382 517.762 405.115 496.801 408.849 492.224C429.69 466.806 440.05 455.843 457.878 440.183C466.19 432.834 491.127 413.801 497.271 410.066C498.596 409.344 504.619 405.73 510.522 401.995C527.628 391.635 532.687 388.865 553.166 379.348C562.924 374.77 604.966 360.314 608.58 360.314C609.544 360.314 613.038 359.592 616.411 358.628C625.566 356.098 639.058 353.327 653.875 351.038C672.307 348.268 726.275 348.268 746.634 351.038C777.593 355.375 815.66 364.892 836.982 373.565C868.424 386.576 898.299 403.32 921.308 420.788C950.099 442.833 963.953 455.964 987.443 483.55C990.576 487.285 993.708 490.417 994.19 490.417C995.033 490.417 1012.38 477.648 1018.52 472.588C1023.34 468.492 1044.91 451.507 1056.23 442.954C1062.25 438.376 1067.31 434.28 1067.67 433.919C1068.03 433.437 1071.65 430.546 1075.74 427.413C1079.84 424.281 1083.94 421.029 1084.78 420.186C1085.62 419.342 1093.09 413.56 1101.4 407.296C1109.72 401.152 1118.39 394.406 1120.68 392.358C1122.97 390.31 1126.46 387.419 1128.39 386.094L1132 383.444L1129.71 380.071C1120.2 365.374 1078.39 320.681 1059 304.298C1037.32 286.108 1010.81 266.231 997.081 257.919C992.503 255.148 985.998 251.052 982.504 248.764C979.131 246.475 975.879 244.668 975.397 244.668C974.915 244.668 973.59 243.945 972.626 242.981C970.338 240.933 951.545 230.694 938.173 224.309C919.622 215.395 912.032 212.142 892.999 204.794C887.337 202.625 881.073 200.216 878.904 199.252C876.856 198.409 874.086 197.686 872.881 197.686C871.676 197.686 870.11 197.204 869.508 196.602C868.785 195.879 866.135 194.916 863.485 194.193C860.835 193.47 856.016 192.145 852.643 191.181C837.103 186.483 815.299 181.062 806.023 179.617C802.529 179.135 796.386 178.05 792.41 177.328C770.245 173.111 768.438 172.87 732.178 169.979C715.674 168.654 684.594 168.654 667.729 170.1Z"/>
</mask>
<path d="M775.629 1096.83L701.034 1061.73C699.71 1061.12 698.238 1060.8 696.743 1060.8C695.249 1060.8 693.776 1061.12 692.453 1061.73L617.857 1096.83C616.467 1097.45 614.921 1097.75 613.365 1097.7C611.808 1097.65 610.292 1097.25 608.956 1096.55C607.62 1095.84 606.51 1094.85 605.727 1093.66C604.944 1092.48 604.515 1091.14 604.479 1089.76V866.283C604.479 864.128 605.451 862.061 607.181 860.536C608.912 859.012 611.258 858.156 613.705 858.156H779.781C782.228 858.156 784.575 859.012 786.305 860.536C788.035 862.061 789.008 864.128 789.008 866.283V1089.76C788.972 1091.14 788.543 1092.48 787.76 1093.66C786.977 1094.85 785.866 1095.84 784.53 1096.55C783.195 1097.25 781.678 1097.65 780.122 1097.7C778.565 1097.75 777.02 1097.45 775.629 1096.83Z" fill="#042129"/>
<path d="M667.729 170.1C647.491 171.666 631.107 173.473 624.964 174.677C621.711 175.4 614.122 176.725 608.099 177.81C589.185 181.183 578.825 183.592 552.685 190.338C542.084 193.109 518.593 201.421 504.498 207.203C503.173 207.805 497.752 209.974 492.452 212.142C464.022 223.827 414.029 251.173 389.454 268.761C348.737 297.793 300.069 345.497 272.844 383.203C268.748 388.865 263.086 396.695 260.195 400.67C257.304 404.646 252.847 411.271 250.196 415.487C247.667 419.704 244.534 424.522 243.45 426.329C240.92 430.305 239.716 432.594 232.247 446.447C220.08 469.094 215.743 478.129 205.986 501.259C204.058 505.716 194.903 531.736 193.096 538.001C192.493 539.928 191.168 544.265 190.205 547.638C186.109 561.13 180.326 584.982 178.64 595.462C178.038 598.956 176.833 606.666 175.869 612.689C173.339 628.109 171.653 640.878 170.207 656.056C169.485 664.73 169.003 758.211 169.003 926.501C169.003 1208.75 168.641 1192.73 176.231 1210.68C187.313 1236.82 204.058 1252 232.247 1261.64C239.114 1264.04 243.33 1264.29 305.128 1265.13C368.734 1266.09 388.129 1266.94 403.308 1269.83C428.485 1274.4 461.251 1283.2 478.237 1289.7C489.802 1294.16 519.677 1308.5 530.398 1314.64C532.687 1315.96 536.783 1318.25 539.433 1319.58C546.902 1323.67 570.754 1340.06 576.175 1344.88C577.139 1345.72 580.392 1348.25 583.403 1350.54C599.666 1362.95 621.832 1383.79 637.01 1401.37C642.19 1407.4 653.514 1417.28 657.73 1419.57C674.957 1429.08 688.81 1433.06 703.266 1432.94C715.433 1432.94 731.816 1428.36 744.465 1421.49C756.15 1415.23 755.066 1416.19 786.508 1383.18C807.469 1361.26 839.994 1335.24 864.569 1320.66C889.264 1305.97 922.874 1290.91 945.763 1284.28C950.22 1282.96 956.604 1281.03 959.857 1280.07C979.372 1274.28 1013.7 1268.26 1035.75 1266.82C1041.77 1266.33 1071.77 1265.61 1102.61 1265.13C1155.73 1264.16 1158.99 1264.04 1165.85 1261.51C1180.91 1256.09 1193.08 1249.11 1200.67 1241.64C1212.71 1229.83 1216.33 1224.29 1223.56 1206.7C1229.22 1192.97 1229.1 1199.84 1229.1 953.124C1229.1 785.316 1228.74 719.18 1227.77 714C1223.8 692.678 1215.24 676.174 1200.91 662.08C1192.23 653.527 1188.86 651.117 1178.5 646.178C1168.98 641.721 1163.93 640.035 1154.77 638.589C1147.3 637.264 601.292 636.782 599.244 637.987C598.642 638.469 599.064 670.874 599.064 719.783V800.976L601.834 801.699C603.28 802.06 706.398 802.422 830.839 802.422C996.478 802.422 1057.67 802.783 1058.76 803.747C1060.2 804.951 1060.45 829.888 1060.45 951.317C1060.45 1082.5 1060.2 1097.56 1058.52 1099.25C1056.95 1100.81 1053.46 1101.18 1039 1101.18C1029.24 1101.18 1017.2 1101.78 1012.26 1102.38C1007.32 1103.1 998.406 1104.19 992.383 1104.79C986.48 1105.51 978.529 1106.6 974.915 1107.32C971.301 1107.92 963.953 1109.37 958.652 1110.33C953.352 1111.29 945.522 1112.86 941.185 1113.82C936.848 1114.67 931.427 1115.87 929.138 1116.23C926.85 1116.59 923.597 1117.44 921.91 1117.92C920.224 1118.52 915.405 1119.97 911.069 1121.05C891.674 1126.23 862.882 1136.59 845.415 1144.54C842.765 1145.75 837.344 1148.04 833.368 1149.72C818.551 1155.99 797.47 1167.55 776.75 1180.68C775.184 1181.65 771.329 1184.06 768.076 1185.98C764.944 1187.91 758.56 1192.25 753.861 1195.74C749.284 1199.11 742.417 1204.05 738.803 1206.58C735.189 1209.11 731.937 1211.52 731.575 1211.88C731.214 1212.36 727.961 1215.02 724.347 1217.91C720.733 1220.68 714.831 1225.74 711.337 1228.99C707.844 1232.24 703.989 1234.89 702.905 1234.89C701.7 1234.89 696.881 1231.52 692.183 1227.3C674.113 1211.4 659.537 1200.08 641.829 1188.63C635.926 1184.78 629.541 1180.56 627.734 1179.36C606.773 1164.9 570.272 1146.47 540.638 1135.27C537.988 1134.3 534.253 1132.86 532.205 1132.01C530.278 1131.17 522.93 1128.76 515.943 1126.59C508.956 1124.3 501.487 1121.78 499.318 1120.93C497.15 1119.97 494.5 1119.25 493.536 1119.25C492.572 1119.25 489.199 1118.52 486.067 1117.56C477.514 1115.03 450.289 1109.49 432.822 1106.72C407.403 1102.62 389.334 1101.18 365.722 1101.18C345.243 1101.18 341.148 1100.93 339.582 1099.25C337.895 1097.56 337.654 1077.68 337.654 897.83C337.654 687.739 337.895 679.065 343.195 648.829C347.532 623.892 353.676 599.076 357.772 589.56C358.615 587.512 359.338 585.102 359.338 584.139C359.338 583.175 359.82 581.97 360.302 581.368C360.783 580.645 362.47 576.911 364.036 572.935C369.457 558.961 373.191 551.011 383.069 533.182C385.238 529.207 387.527 524.87 388.249 523.545C391.382 517.762 405.115 496.801 408.849 492.224C429.69 466.806 440.05 455.843 457.878 440.183C466.19 432.834 491.127 413.801 497.271 410.066C498.596 409.344 504.619 405.73 510.522 401.995C527.628 391.635 532.687 388.865 553.166 379.348C562.924 374.77 604.966 360.314 608.58 360.314C609.544 360.314 613.038 359.592 616.411 358.628C625.566 356.098 639.058 353.327 653.875 351.038C672.307 348.268 726.275 348.268 746.634 351.038C777.593 355.375 815.66 364.892 836.982 373.565C868.424 386.576 898.299 403.32 921.308 420.788C950.099 442.833 963.953 455.964 987.443 483.55C990.576 487.285 993.708 490.417 994.19 490.417C995.033 490.417 1012.38 477.648 1018.52 472.588C1023.34 468.492 1044.91 451.507 1056.23 442.954C1062.25 438.376 1067.31 434.28 1067.67 433.919C1068.03 433.437 1071.65 430.546 1075.74 427.413C1079.84 424.281 1083.94 421.029 1084.78 420.186C1085.62 419.342 1093.09 413.56 1101.4 407.296C1109.72 401.152 1118.39 394.406 1120.68 392.358C1122.97 390.31 1126.46 387.419 1128.39 386.094L1132 383.444L1129.71 380.071C1120.2 365.374 1078.39 320.681 1059 304.298C1037.32 286.108 1010.81 266.231 997.081 257.919C992.503 255.148 985.998 251.052 982.504 248.764C979.131 246.475 975.879 244.668 975.397 244.668C974.915 244.668 973.59 243.945 972.626 242.981C970.338 240.933 951.545 230.694 938.173 224.309C919.622 215.395 912.032 212.142 892.999 204.794C887.337 202.625 881.073 200.216 878.904 199.252C876.856 198.409 874.086 197.686 872.881 197.686C871.676 197.686 870.11 197.204 869.508 196.602C868.785 195.879 866.135 194.916 863.485 194.193C860.835 193.47 856.016 192.145 852.643 191.181C837.103 186.483 815.299 181.062 806.023 179.617C802.529 179.135 796.386 178.05 792.41 177.328C770.245 173.111 768.438 172.87 732.178 169.979C715.674 168.654 684.594 168.654 667.729 170.1Z" fill="#042129"/>
<path d="M775.629 1096.83L701.034 1061.73C699.71 1061.12 698.238 1060.8 696.743 1060.8C695.249 1060.8 693.776 1061.12 692.453 1061.73L617.857 1096.83C616.467 1097.45 614.921 1097.75 613.365 1097.7C611.808 1097.65 610.292 1097.25 608.956 1096.55C607.62 1095.84 606.51 1094.85 605.727 1093.66C604.944 1092.48 604.515 1091.14 604.479 1089.76V866.283C604.479 864.128 605.451 862.061 607.181 860.536C608.912 859.012 611.258 858.156 613.705 858.156H779.781C782.228 858.156 784.575 859.012 786.305 860.536C788.035 862.061 789.008 864.128 789.008 866.283V1089.76C788.972 1091.14 788.543 1092.48 787.76 1093.66C786.977 1094.85 785.866 1095.84 784.53 1096.55C783.195 1097.25 781.678 1097.65 780.122 1097.7C778.565 1097.75 777.02 1097.45 775.629 1096.83Z" stroke="#042129" stroke-width="338" stroke-linejoin="round" mask="url(#path-1-outside-1_291_99)"/>
<path d="M667.729 170.1C647.491 171.666 631.107 173.473 624.964 174.677C621.711 175.4 614.122 176.725 608.099 177.81C589.185 181.183 578.825 183.592 552.685 190.338C542.084 193.109 518.593 201.421 504.498 207.203C503.173 207.805 497.752 209.974 492.452 212.142C464.022 223.827 414.029 251.173 389.454 268.761C348.737 297.793 300.069 345.497 272.844 383.203C268.748 388.865 263.086 396.695 260.195 400.67C257.304 404.646 252.847 411.271 250.196 415.487C247.667 419.704 244.534 424.522 243.45 426.329C240.92 430.305 239.716 432.594 232.247 446.447C220.08 469.094 215.743 478.129 205.986 501.259C204.058 505.716 194.903 531.736 193.096 538.001C192.493 539.928 191.168 544.265 190.205 547.638C186.109 561.13 180.326 584.982 178.64 595.462C178.038 598.956 176.833 606.666 175.869 612.689C173.339 628.109 171.653 640.878 170.207 656.056C169.485 664.73 169.003 758.211 169.003 926.501C169.003 1208.75 168.641 1192.73 176.231 1210.68C187.313 1236.82 204.058 1252 232.247 1261.64C239.114 1264.04 243.33 1264.29 305.128 1265.13C368.734 1266.09 388.129 1266.94 403.308 1269.83C428.485 1274.4 461.251 1283.2 478.237 1289.7C489.802 1294.16 519.677 1308.5 530.398 1314.64C532.687 1315.96 536.783 1318.25 539.433 1319.58C546.902 1323.67 570.754 1340.06 576.175 1344.88C577.139 1345.72 580.392 1348.25 583.403 1350.54C599.666 1362.95 621.832 1383.79 637.01 1401.37C642.19 1407.4 653.514 1417.28 657.73 1419.57C674.957 1429.08 688.81 1433.06 703.266 1432.94C715.433 1432.94 731.816 1428.36 744.465 1421.49C756.15 1415.23 755.066 1416.19 786.508 1383.18C807.469 1361.26 839.994 1335.24 864.569 1320.66C889.264 1305.97 922.874 1290.91 945.763 1284.28C950.22 1282.96 956.604 1281.03 959.857 1280.07C979.372 1274.28 1013.7 1268.26 1035.75 1266.82C1041.77 1266.33 1071.77 1265.61 1102.61 1265.13C1155.73 1264.16 1158.99 1264.04 1165.85 1261.51C1180.91 1256.09 1193.08 1249.11 1200.67 1241.64C1212.71 1229.83 1216.33 1224.29 1223.56 1206.7C1229.22 1192.97 1229.1 1199.84 1229.1 953.124C1229.1 785.316 1228.74 719.18 1227.77 714C1223.8 692.678 1215.24 676.174 1200.91 662.08C1192.23 653.527 1188.86 651.117 1178.5 646.178C1168.98 641.721 1163.93 640.035 1154.77 638.589C1147.3 637.264 601.292 636.782 599.244 637.987C598.642 638.469 599.064 670.874 599.064 719.783V800.976L601.834 801.699C603.28 802.06 706.398 802.422 830.839 802.422C996.478 802.422 1057.67 802.783 1058.76 803.747C1060.2 804.951 1060.45 829.888 1060.45 951.317C1060.45 1082.5 1060.2 1097.56 1058.52 1099.25C1056.95 1100.81 1053.46 1101.18 1039 1101.18C1029.24 1101.18 1017.2 1101.78 1012.26 1102.38C1007.32 1103.1 998.406 1104.19 992.383 1104.79C986.48 1105.51 978.529 1106.6 974.915 1107.32C971.301 1107.92 963.953 1109.37 958.652 1110.33C953.352 1111.29 945.522 1112.86 941.185 1113.82C936.848 1114.67 931.427 1115.87 929.138 1116.23C926.85 1116.59 923.597 1117.44 921.91 1117.92C920.224 1118.52 915.405 1119.97 911.069 1121.05C891.674 1126.23 862.882 1136.59 845.415 1144.54C842.765 1145.75 837.344 1148.04 833.368 1149.72C818.551 1155.99 797.47 1167.55 776.75 1180.68C775.184 1181.65 771.329 1184.06 768.076 1185.98C764.944 1187.91 758.56 1192.25 753.861 1195.74C749.284 1199.11 742.417 1204.05 738.803 1206.58C735.189 1209.11 731.937 1211.52 731.575 1211.88C731.214 1212.36 727.961 1215.02 724.347 1217.91C720.733 1220.68 714.831 1225.74 711.337 1228.99C707.844 1232.24 703.989 1234.89 702.905 1234.89C701.7 1234.89 696.881 1231.52 692.183 1227.3C674.113 1211.4 659.537 1200.08 641.829 1188.63C635.926 1184.78 629.541 1180.56 627.734 1179.36C606.773 1164.9 570.272 1146.47 540.638 1135.27C537.988 1134.3 534.253 1132.86 532.205 1132.01C530.278 1131.17 522.93 1128.76 515.943 1126.59C508.956 1124.3 501.487 1121.78 499.318 1120.93C497.15 1119.97 494.5 1119.25 493.536 1119.25C492.572 1119.25 489.199 1118.52 486.067 1117.56C477.514 1115.03 450.289 1109.49 432.822 1106.72C407.403 1102.62 389.334 1101.18 365.722 1101.18C345.243 1101.18 341.148 1100.93 339.582 1099.25C337.895 1097.56 337.654 1077.68 337.654 897.83C337.654 687.739 337.895 679.065 343.195 648.829C347.532 623.892 353.676 599.076 357.772 589.56C358.615 587.512 359.338 585.102 359.338 584.139C359.338 583.175 359.82 581.97 360.302 581.368C360.783 580.645 362.47 576.911 364.036 572.935C369.457 558.961 373.191 551.011 383.069 533.182C385.238 529.207 387.527 524.87 388.249 523.545C391.382 517.762 405.115 496.801 408.849 492.224C429.69 466.806 440.05 455.843 457.878 440.183C466.19 432.834 491.127 413.801 497.271 410.066C498.596 409.344 504.619 405.73 510.522 401.995C527.628 391.635 532.687 388.865 553.166 379.348C562.924 374.77 604.966 360.314 608.58 360.314C609.544 360.314 613.038 359.592 616.411 358.628C625.566 356.098 639.058 353.327 653.875 351.038C672.307 348.268 726.275 348.268 746.634 351.038C777.593 355.375 815.66 364.892 836.982 373.565C868.424 386.576 898.299 403.32 921.308 420.788C950.099 442.833 963.953 455.964 987.443 483.55C990.576 487.285 993.708 490.417 994.19 490.417C995.033 490.417 1012.38 477.648 1018.52 472.588C1023.34 468.492 1044.91 451.507 1056.23 442.954C1062.25 438.376 1067.31 434.28 1067.67 433.919C1068.03 433.437 1071.65 430.546 1075.74 427.413C1079.84 424.281 1083.94 421.029 1084.78 420.186C1085.62 419.342 1093.09 413.56 1101.4 407.296C1109.72 401.152 1118.39 394.406 1120.68 392.358C1122.97 390.31 1126.46 387.419 1128.39 386.094L1132 383.444L1129.71 380.071C1120.2 365.374 1078.39 320.681 1059 304.298C1037.32 286.108 1010.81 266.231 997.081 257.919C992.503 255.148 985.998 251.052 982.504 248.764C979.131 246.475 975.879 244.668 975.397 244.668C974.915 244.668 973.59 243.945 972.626 242.981C970.338 240.933 951.545 230.694 938.173 224.309C919.622 215.395 912.032 212.142 892.999 204.794C887.337 202.625 881.073 200.216 878.904 199.252C876.856 198.409 874.086 197.686 872.881 197.686C871.676 197.686 870.11 197.204 869.508 196.602C868.785 195.879 866.135 194.916 863.485 194.193C860.835 193.47 856.016 192.145 852.643 191.181C837.103 186.483 815.299 181.062 806.023 179.617C802.529 179.135 796.386 178.05 792.41 177.328C770.245 173.111 768.438 172.87 732.178 169.979C715.674 168.654 684.594 168.654 667.729 170.1Z" stroke="#042129" stroke-width="338" stroke-linejoin="round" mask="url(#path-1-outside-1_291_99)"/>
<path d="M775.629 1100.62L701.034 1065.51C699.71 1064.9 698.238 1064.58 696.743 1064.58C695.249 1064.58 693.776 1064.9 692.453 1065.51L617.857 1100.62C616.467 1101.24 614.921 1101.53 613.365 1101.48C611.808 1101.43 610.292 1101.04 608.956 1100.33C607.62 1099.63 606.51 1098.63 605.727 1097.45C604.944 1096.26 604.515 1094.92 604.479 1093.55V870.068C604.479 867.913 605.451 865.846 607.181 864.322C608.912 862.798 611.258 861.941 613.705 861.941H779.781C782.228 861.941 784.575 862.798 786.305 864.322C788.035 865.846 789.008 867.913 789.008 870.068V1093.55C788.972 1094.92 788.543 1096.26 787.76 1097.45C786.977 1098.63 785.866 1099.63 784.53 1100.33C783.195 1101.04 781.678 1101.43 780.122 1101.48C778.565 1101.53 777.02 1101.24 775.629 1100.62Z" fill="#6FEF8B"/>
<path d="M667.729 173.885C647.491 175.451 631.107 177.258 624.964 178.463C621.711 179.185 614.122 180.511 608.099 181.595C589.185 184.968 578.825 187.377 552.685 194.123C542.084 196.894 518.593 205.206 504.498 210.988C503.173 211.591 497.752 213.759 492.452 215.927C464.022 227.612 414.029 254.958 389.454 272.546C348.737 301.578 300.069 349.282 272.844 386.988C268.748 392.65 263.086 400.48 260.195 404.455C257.304 408.431 252.847 415.056 250.196 419.273C247.667 423.489 244.534 428.307 243.45 430.114C240.92 434.09 239.716 436.379 232.247 450.232C220.08 472.88 215.743 481.915 205.986 505.044C204.058 509.501 194.903 535.522 193.096 541.786C192.493 543.713 191.168 548.05 190.205 551.423C186.109 564.915 180.326 588.767 178.64 599.248C178.038 602.741 176.833 610.451 175.869 616.474C173.339 631.894 171.653 644.663 170.207 659.842C169.485 668.515 169.003 761.996 169.003 930.286C169.003 1212.54 168.641 1196.51 176.231 1214.46C187.313 1240.6 204.058 1255.78 232.247 1265.42C239.114 1267.83 243.33 1268.07 305.128 1268.91C368.734 1269.88 388.129 1270.72 403.308 1273.61C428.485 1278.19 461.251 1286.98 478.237 1293.49C489.802 1297.95 519.677 1312.28 530.398 1318.42C532.687 1319.75 536.783 1322.04 539.433 1323.36C546.902 1327.46 570.754 1343.84 576.175 1348.66C577.139 1349.5 580.392 1352.03 583.403 1354.32C599.666 1366.73 621.832 1387.57 637.01 1405.16C642.19 1411.18 653.514 1421.06 657.73 1423.35C674.957 1432.87 688.81 1436.84 703.266 1436.72C715.433 1436.72 731.816 1432.14 744.465 1425.28C756.15 1419.01 755.066 1419.98 786.508 1386.97C807.469 1365.05 839.994 1339.02 864.569 1324.45C889.264 1309.75 922.874 1294.69 945.763 1288.07C950.22 1286.74 956.604 1284.82 959.857 1283.85C979.372 1278.07 1013.7 1272.05 1035.75 1270.6C1041.77 1270.12 1071.77 1269.4 1102.61 1268.91C1155.73 1267.95 1158.99 1267.83 1165.85 1265.3C1180.91 1259.88 1193.08 1252.89 1200.67 1245.42C1212.71 1233.62 1216.33 1228.08 1223.56 1210.49C1229.22 1196.76 1229.1 1203.62 1229.1 956.909C1229.1 789.101 1228.74 722.965 1227.77 717.785C1223.8 696.463 1215.24 679.959 1200.91 665.865C1192.23 657.312 1188.86 654.903 1178.5 649.964C1168.98 645.506 1163.93 643.82 1154.77 642.374C1147.3 641.049 601.292 640.567 599.244 641.772C598.642 642.254 599.064 674.659 599.064 723.568V804.761L601.834 805.484C603.28 805.845 706.398 806.207 830.839 806.207C996.478 806.207 1057.67 806.568 1058.76 807.532C1060.2 808.737 1060.45 833.673 1060.45 955.102C1060.45 1086.29 1060.2 1101.35 1058.52 1103.03C1056.95 1104.6 1053.46 1104.96 1039 1104.96C1029.25 1104.96 1017.2 1105.56 1012.26 1106.17C1007.32 1106.89 998.406 1107.97 992.383 1108.57C986.48 1109.3 978.529 1110.38 974.915 1111.1C971.301 1111.71 963.953 1113.15 958.652 1114.12C953.352 1115.08 945.522 1116.65 941.185 1117.61C936.848 1118.45 931.427 1119.66 929.138 1120.02C926.85 1120.38 923.597 1121.22 921.91 1121.71C920.224 1122.31 915.405 1123.75 911.069 1124.84C891.674 1130.02 862.882 1140.38 845.415 1148.33C842.765 1149.53 837.344 1151.82 833.368 1153.51C818.551 1159.77 797.47 1171.34 776.75 1184.47C775.184 1185.43 771.329 1187.84 768.076 1189.77C764.944 1191.7 758.56 1196.03 753.861 1199.53C749.284 1202.9 742.417 1207.84 738.803 1210.37C735.189 1212.9 731.937 1215.31 731.575 1215.67C731.214 1216.15 727.961 1218.8 724.347 1221.69C720.733 1224.46 714.831 1229.52 711.337 1232.77C707.844 1236.03 703.989 1238.68 702.905 1238.68C701.7 1238.68 696.881 1235.3 692.183 1231.09C674.113 1215.19 659.537 1203.86 641.829 1192.42C635.926 1188.56 629.541 1184.35 627.734 1183.14C606.773 1168.69 570.272 1150.26 540.638 1139.05C537.988 1138.09 534.253 1136.64 532.205 1135.8C530.278 1134.96 522.93 1132.55 515.943 1130.38C508.956 1128.09 501.487 1125.56 499.318 1124.72C497.15 1123.75 494.5 1123.03 493.536 1123.03C492.572 1123.03 489.199 1122.31 486.067 1121.34C477.514 1118.81 450.289 1113.27 432.822 1110.5C407.403 1106.41 389.334 1104.96 365.722 1104.96C345.243 1104.96 341.148 1104.72 339.582 1103.03C337.895 1101.35 337.654 1081.47 337.654 901.615C337.654 691.524 337.895 682.85 343.195 652.614C347.532 627.677 353.676 602.862 357.772 593.345C358.615 591.297 359.338 588.888 359.338 587.924C359.338 586.96 359.82 585.756 360.302 585.153C360.783 584.43 362.47 580.696 364.036 576.721C369.457 562.747 373.191 554.796 383.069 536.967C385.238 532.992 387.527 528.655 388.249 527.33C391.382 521.548 405.115 500.587 408.849 496.009C429.69 470.591 440.05 459.628 457.878 443.968C466.19 436.619 491.127 417.586 497.271 413.852C498.596 413.129 504.619 409.515 510.522 405.78C527.628 395.42 532.687 392.65 553.166 383.133C562.924 378.555 604.966 364.1 608.58 364.1C609.544 364.1 613.038 363.377 616.411 362.413C625.566 359.883 639.058 357.112 653.875 354.824C672.307 352.053 726.275 352.053 746.634 354.824C777.593 359.16 815.66 368.677 836.982 377.351C868.424 390.361 898.299 407.106 921.308 424.573C950.099 446.618 963.953 459.749 987.443 487.335C990.576 491.07 993.708 494.202 994.19 494.202C995.033 494.202 1012.38 481.433 1018.52 476.373C1023.34 472.277 1044.91 455.292 1056.23 446.739C1062.25 442.161 1067.31 438.065 1067.67 437.704C1068.03 437.222 1071.65 434.331 1075.74 431.199C1079.84 428.066 1083.94 424.814 1084.78 423.971C1085.62 423.127 1093.09 417.345 1101.4 411.081C1109.72 404.937 1118.39 398.191 1120.68 396.143C1122.97 394.095 1126.46 391.204 1128.39 389.879L1132 387.229L1129.71 383.856C1120.2 369.159 1078.39 324.466 1059 308.083C1037.32 289.893 1010.81 270.016 997.081 261.704C992.503 258.933 985.998 254.838 982.504 252.549C979.131 250.26 975.879 248.453 975.397 248.453C974.915 248.453 973.59 247.73 972.626 246.766C970.338 244.718 951.545 234.479 938.173 228.094C919.622 219.18 912.032 215.927 892.999 208.579C887.337 206.41 881.073 204.001 878.904 203.037C876.856 202.194 874.086 201.471 872.881 201.471C871.676 201.471 870.11 200.99 869.508 200.387C868.785 199.664 866.135 198.701 863.485 197.978C860.835 197.255 856.016 195.93 852.643 194.966C837.103 190.268 815.299 184.847 806.023 183.402C802.529 182.92 796.386 181.836 792.41 181.113C770.245 176.897 768.438 176.656 732.178 173.764C715.674 172.439 684.594 172.439 667.729 173.885Z" fill="white"/>
</svg>
