<svg width="5297" height="1439" viewBox="0 0 5297 1439" fill="none" xmlns="http://www.w3.org/2000/svg">
<path d="M1542.52 474.475H1722.31V1086.57H1567.14L1549.96 910.783C1537.36 979.493 1515.61 1027.4 1484.69 1054.5C1453.77 1081.22 1414.07 1094.58 1365.59 1094.58C1298.41 1094.58 1246.87 1073.59 1210.99 1031.6C1175.11 989.227 1157.17 928.915 1157.17 850.662V474.475H1336.39V835.775C1336.39 871.657 1345.17 899.523 1362.73 919.372C1380.29 939.222 1405.48 949.146 1438.31 949.146C1471.9 949.146 1497.67 938.649 1515.61 917.654C1533.55 896.66 1542.52 867.267 1542.52 829.477V474.475ZM2442.05 779.089V822.606H1987.99C1991.04 868.794 2006.5 904.676 2034.37 930.251C2062.23 955.445 2098.88 968.042 2144.3 968.042C2208.43 968.042 2251.76 943.039 2274.28 893.033H2437.47C2421.05 957.163 2386.31 1006.79 2333.25 1041.9C2280.58 1077.02 2217.59 1094.58 2144.3 1094.58C2045.05 1094.58 1966.8 1066.14 1909.54 1009.27C1852.29 952.009 1823.66 875.283 1823.66 779.089C1823.66 688.239 1853.05 613.422 1911.83 554.637C1970.62 495.852 2045.63 466.459 2136.86 466.459C2231.53 466.459 2305.96 494.897 2360.17 551.774C2414.75 608.65 2442.05 684.422 2442.05 779.089ZM2133.42 584.411C2093.72 584.411 2060.9 598.153 2034.94 625.637C2008.98 653.121 1993.71 685.186 1989.13 721.831H2276.57C2273.52 682.132 2259.2 649.304 2233.63 623.347C2208.43 597.39 2175.03 584.411 2133.42 584.411ZM2801.63 1094.58C2723.37 1094.58 2656.96 1077.21 2602.37 1042.48C2547.78 1007.74 2516.86 958.308 2509.61 894.179H2678.52C2683.87 920.136 2697.61 940.176 2719.75 954.3C2742.27 968.042 2769.94 974.913 2802.77 974.913C2873.77 974.913 2909.46 952.773 2909.85 908.493C2909.85 874.902 2887.52 854.098 2842.85 846.082L2685.39 818.025C2575.84 799.321 2521.25 745.307 2521.63 655.984C2521.63 594.908 2547.02 548.148 2597.79 515.701C2648.56 482.873 2712.69 466.459 2790.18 466.459C2868.43 466.459 2931.6 483.255 2979.7 516.846C3028.18 550.438 3054.52 596.435 3058.72 654.839H2894.39C2884.84 607.887 2848.96 584.411 2786.74 584.411C2757.73 584.411 2734.25 589.183 2716.31 598.726C2698.37 608.269 2689.4 622.392 2689.4 641.097C2689.4 670.108 2710.4 688.049 2752.39 694.92L2909.85 719.541C3022.45 738.245 3078.76 794.549 3078.76 888.453C3078.76 955.636 3052.42 1006.79 2999.74 1041.9C2947.45 1077.02 2881.41 1094.58 2801.63 1094.58ZM3466.97 938.84H3532.24V1086.57H3405.7C3275.15 1086.57 3209.88 1019.38 3209.88 885.017V615.331H3121.13V474.475H3209.88V306.708H3389.67V343.354C3389.67 378.472 3378.22 409.201 3355.32 435.54C3332.79 461.497 3299.58 474.475 3255.69 474.475H3531.1V615.331H3389.67V859.251C3389.67 912.31 3415.44 938.84 3466.97 938.84Z" fill="white"/>
<path d="M3983.44 466.459C4055.2 466.459 4109.79 487.454 4147.2 529.443C4184.99 571.051 4203.88 630.981 4203.88 709.234V1086.57H4024.67V726.412C4024.67 690.53 4015.69 662.473 3997.75 642.242C3979.81 622.011 3954.43 611.895 3921.6 611.895C3886.48 611.895 3859.38 622.392 3840.29 643.387C3821.59 664.382 3812.24 694.156 3812.24 732.71V1086.57H3633.02V474.475H3787.62L3805.37 644.532C3825.6 525.817 3884.95 466.459 3983.44 466.459ZM4527.39 373.701C4509.45 389.351 4485.98 397.176 4456.97 397.176C4427.95 397.176 4404.48 389.351 4386.54 373.701C4368.6 358.05 4359.63 335.719 4359.63 306.708C4359.63 276.934 4368.6 254.222 4386.54 238.571C4404.48 222.92 4427.95 215.095 4456.97 215.095C4485.98 215.095 4509.45 222.92 4527.39 238.571C4545.33 254.222 4554.3 276.934 4554.3 306.708C4554.3 335.719 4545.33 358.05 4527.39 373.701ZM4546.29 474.475V1086.57H4366.5V615.331H4277.75V474.475H4546.29ZM5282.06 1086.57H5088.52L4958.55 820.315L4826.85 1086.57H4635.04L4810.82 773.363L4638.47 474.475H4830.86L4958.55 737.291L5085.09 474.475H5277.48L5106.27 774.509L5282.06 1086.57Z" fill="#6FEF8B"/>
<path d="M606.627 927.834L532.031 892.728C530.708 892.115 529.236 891.796 527.741 891.796C526.246 891.796 524.774 892.115 523.451 892.728L448.855 927.834C447.464 928.452 445.919 928.75 444.362 928.699C442.806 928.649 441.289 928.253 439.954 927.547C438.618 926.841 437.507 925.849 436.724 924.663C435.941 923.477 435.512 922.136 435.477 920.764V697.283C435.477 695.128 436.449 693.061 438.179 691.536C439.909 690.012 442.256 689.156 444.703 689.156H610.779C613.226 689.156 615.572 690.012 617.303 691.536C619.033 693.061 620.005 695.128 620.005 697.283V920.764C619.969 922.136 619.54 923.477 618.757 924.663C617.975 925.849 616.864 926.841 615.528 927.547C614.193 928.253 612.676 928.649 611.119 928.699C609.563 928.75 608.017 928.452 606.627 927.834Z" fill="#6FEF8B"/>
<path d="M498.729 1.10193C478.491 2.66797 462.107 4.47485 455.964 5.67957C452.711 6.40234 445.122 7.72742 439.099 8.81165C420.185 12.1847 409.825 14.5939 383.685 21.34C373.084 24.1106 349.593 32.4229 335.498 38.2052C334.173 38.8075 328.752 40.9758 323.452 43.1443C295.022 54.8293 245.029 82.1749 220.454 99.7628C179.737 128.795 131.069 176.499 103.844 214.205C99.7479 219.867 94.0861 227.697 91.1949 231.672C88.3037 235.648 83.8465 242.273 81.1963 246.49C78.6665 250.706 75.5344 255.524 74.4502 257.331C71.9205 261.307 70.7158 263.596 63.247 277.449C51.08 300.097 46.7432 309.131 36.9856 332.261C35.0581 336.718 25.9028 362.738 24.0958 369.003C23.4935 370.93 22.1683 375.267 21.2046 378.64C17.1088 392.132 11.3265 415.984 9.63995 426.465C9.03762 429.958 7.83297 437.668 6.86925 443.691C4.33948 459.111 2.65297 471.88 1.20739 487.059C0.484594 495.732 0.00273267 589.213 0.00273267 757.503C0.00273267 1039.75 -0.358663 1023.73 7.23065 1041.68C18.3134 1067.82 35.0581 1083 63.247 1092.64C70.1135 1095.05 74.3298 1095.29 136.128 1096.13C199.734 1097.09 219.129 1097.94 234.308 1100.83C259.485 1105.41 292.251 1114.2 309.237 1120.71C320.802 1125.16 350.677 1139.5 361.398 1145.64C363.687 1146.97 367.783 1149.26 370.433 1150.58C377.902 1154.68 401.754 1171.06 407.175 1175.88C408.139 1176.72 411.392 1179.25 414.403 1181.54C430.666 1193.95 452.832 1214.79 468.01 1232.38C473.19 1238.4 484.514 1248.28 488.73 1250.57C505.957 1260.08 519.81 1264.06 534.266 1263.94C546.433 1263.94 562.816 1259.36 575.465 1252.49C587.15 1246.23 586.066 1247.19 617.508 1214.19C638.469 1192.26 670.994 1166.24 695.569 1151.67C720.264 1136.97 753.874 1121.91 776.763 1115.28C781.22 1113.96 787.604 1112.03 790.857 1111.07C810.372 1105.29 844.705 1099.26 866.75 1097.82C872.773 1097.34 902.769 1096.61 933.608 1096.13C986.734 1095.17 989.986 1095.05 996.853 1092.52C1011.91 1087.1 1024.08 1080.11 1031.67 1072.64C1043.71 1060.83 1047.33 1055.29 1054.56 1037.71C1060.22 1023.97 1060.1 1030.84 1060.1 784.126C1060.1 616.318 1059.74 550.182 1058.77 545.002C1054.8 523.68 1046.24 507.176 1031.91 493.082C1023.23 484.529 1019.86 482.12 1009.5 477.18C999.985 472.723 994.925 471.037 985.77 469.591C978.301 468.266 432.292 467.784 430.244 468.989C429.642 469.471 430.064 501.876 430.064 550.785V631.978L432.834 632.701C434.28 633.062 537.398 633.424 661.839 633.424C827.478 633.424 888.675 633.785 889.759 634.749C891.205 635.954 891.445 660.89 891.445 782.319C891.445 913.505 891.205 928.564 889.518 930.25C887.952 931.816 884.458 932.178 870.003 932.178C860.245 932.178 848.198 932.78 843.259 933.382C838.32 934.105 829.406 935.189 823.383 935.792C817.48 936.514 809.529 937.599 805.915 938.321C802.301 938.924 794.953 940.369 789.652 941.333C784.352 942.297 776.522 943.863 772.185 944.826C767.848 945.67 762.427 946.874 760.138 947.236C757.849 947.597 754.597 948.44 752.91 948.922C751.224 949.525 746.405 950.97 742.069 952.054C722.674 957.234 693.882 967.594 676.415 975.545C673.765 976.75 668.344 979.039 664.368 980.725C649.551 986.989 628.47 998.554 607.75 1011.68C606.184 1012.65 602.329 1015.06 599.076 1016.99C595.944 1018.91 589.56 1023.25 584.861 1026.74C580.284 1030.12 573.417 1035.05 569.803 1037.58C566.189 1040.11 562.937 1042.52 562.575 1042.89C562.214 1043.37 558.961 1046.02 555.347 1048.91C551.733 1051.68 545.831 1056.74 542.337 1059.99C538.844 1063.24 534.989 1065.89 533.905 1065.89C532.7 1065.89 527.881 1062.52 523.183 1058.3C505.113 1042.4 490.537 1031.08 472.829 1019.64C466.926 1015.78 460.541 1011.56 458.734 1010.36C437.773 995.904 401.272 977.472 371.638 966.269C368.988 965.305 365.253 963.86 363.205 963.017C361.278 962.173 353.93 959.764 346.943 957.596C339.956 955.307 332.487 952.777 330.318 951.934C328.15 950.97 325.5 950.247 324.536 950.247C323.572 950.247 320.199 949.525 317.067 948.561C308.514 946.031 281.289 940.49 263.822 937.719C238.403 933.623 220.334 932.178 196.722 932.178C176.243 932.178 172.148 931.937 170.582 930.25C168.895 928.564 168.654 908.687 168.654 728.832C168.654 518.741 168.895 510.067 174.195 479.831C178.532 454.894 184.676 430.079 188.772 420.562C189.615 418.514 190.338 416.105 190.338 415.141C190.338 414.177 190.82 412.972 191.302 412.37C191.783 411.647 193.47 407.913 195.036 403.938C200.457 389.964 204.191 382.013 214.069 364.184C216.238 360.209 218.527 355.872 219.249 354.547C222.382 348.765 236.115 327.804 239.849 323.226C260.689 297.808 271.05 286.845 288.878 271.185C297.19 263.836 322.127 244.803 328.271 241.069C329.596 240.346 335.619 236.732 341.522 232.997C358.628 222.637 363.687 219.867 384.166 210.35C393.924 205.772 435.966 191.316 439.58 191.316C440.544 191.316 444.038 190.594 447.411 189.63C456.566 187.1 470.058 184.329 484.875 182.041C503.307 179.27 557.275 179.27 577.634 182.041C608.593 186.377 646.66 195.894 667.982 204.568C699.424 217.578 729.299 234.322 752.308 251.79C781.099 273.835 794.953 286.966 818.443 314.552C821.576 318.287 824.708 321.419 825.19 321.419C826.033 321.419 843.38 308.65 849.524 303.59C854.342 299.494 875.905 282.509 887.229 273.956C893.252 269.378 898.312 265.282 898.673 264.921C899.035 264.439 902.649 261.548 906.745 258.416C910.84 255.283 914.936 252.031 915.779 251.188C916.623 250.344 924.092 244.562 932.404 238.298C940.716 232.154 949.389 225.408 951.678 223.36C953.967 221.312 957.46 218.421 959.388 217.096L963.002 214.446L960.713 211.073C951.196 196.376 909.395 151.683 890 135.3C868.316 117.11 841.814 97.233 828.081 88.921C823.503 86.1503 816.998 82.0544 813.504 79.7656C810.131 77.4768 806.879 75.6698 806.397 75.6698C805.915 75.6698 804.59 74.947 803.626 73.9833C801.337 71.9354 782.545 61.6959 769.173 55.3113C750.622 46.3969 743.032 43.1442 723.999 35.7958C718.337 33.6274 712.073 31.2181 709.904 30.2544C707.856 29.4111 705.086 28.6884 703.881 28.6884C702.676 28.6884 701.11 28.2064 700.508 27.6041C699.785 26.8813 697.135 25.9177 694.485 25.1949C691.835 24.472 687.016 23.147 683.643 22.1832C668.103 17.4851 646.299 12.0642 637.023 10.6187C633.529 10.1367 627.386 9.05261 623.41 8.32983C601.245 4.11353 599.438 3.87244 563.178 0.981323C546.674 -0.34375 515.594 -0.34375 498.729 1.10193Z" fill="white"/>
</svg>
